<?xml version="1.0" encoding="UTF-8"?>
<svg width="1200pt" height="1200pt" version="1.1" viewBox="0 0 1200 1200" xmlns="http://www.w3.org/2000/svg">
 <path d="m205.04 742.2 193.89 349c7.7773 29.832 35.137 51.203 66.121 51.203h470.94c37.656 0 68.375-30.637 68.473-68.305l0.70703-286.38c0.625-4.3906 0.9375-8.3984 0.9375-12.227v-128.54c0-48.793-39.695-88.5-88.5-88.5-23.258 0-44.496 9.0977-60.336 23.914-12.961-32.797-44.988-56.051-82.332-56.051-24.996 0-47.605 10.414-63.719 27.145-14.617-28.789-44.52-48.562-78.961-48.562-22.285 0-42.684 8.2812-58.262 21.938v-201.25c0-48.793-39.695-88.488-88.488-88.488s-88.5 39.695-88.5 88.488v302.35c-0.17969 1.3203-0.3125 2.6641-0.3125 4.0664v90.73l-36.949-66.504c-11.484-20.664-30.312-35.617-53.039-42.121-22.754-6.4922-46.633-3.7422-67.285 7.7383-42.648 23.688-58.066 77.676-34.379 120.32zm51.863-88.859c7.9062-4.3906 16.609-6.6367 25.402-6.6367 4.8359 0 9.707 0.68359 14.496 2.0391 13.488 3.8516 24.66 12.73 31.477 24.984l70.68 127.22c3.9844 7.1641 12.289 10.727 20.258 8.6875 7.9453-2.0508 13.488-9.2266 13.488-17.426v-159.43c0.10938-0.88672 0.21484-1.7656 0.3125-3.8047v-303.37c0-28.945 23.543-52.488 52.5-52.488s52.488 23.543 52.488 52.488v277.21c0 8.9023 6.5156 16.477 15.324 17.797l5.7734 0.86328c5.1602 0.78125 10.441-0.74219 14.41-4.1641 3.9727-3.4219 6.2539-8.3984 6.2539-13.645v-10.273c0-28.945 23.543-52.5 52.488-52.5 28.945 0 52.5 23.543 52.5 52.5v31.367c0 8.9141 6.5273 16.5 15.348 17.809l1.6914 0.25391c5.1836 0.74219 10.441-0.75781 14.398-4.1758 3.9727-3.4219 6.2539-8.3984 6.2539-13.633v-10.199c0-28.945 23.543-52.5 52.5-52.5s52.488 23.543 52.488 52.5v31.285c0 8.9141 6.5156 16.488 15.336 17.797l1.7266 0.25391c5.1953 0.81641 10.391-0.73047 14.352-4.1172 3.9727-3.3828 6.2656-8.3281 6.3125-13.535 0.23828-28.703 23.773-52.055 52.465-52.055 28.945 0 52.5 23.543 52.5 52.5v128.54c0 2.3984-0.22656 4.9805-0.71875 8.1133-0.13281 0.89844-0.21484 1.8008-0.21484 2.7109l-0.70703 287.69c-0.046875 17.867-14.617 32.398-32.473 32.398h-470.94c-15.109 0-28.391-10.766-31.598-25.598-0.37109-1.7383-0.99609-3.3945-1.8594-4.9453l-195.09-351.16c-14.051-25.297-4.9062-57.324 20.398-71.375z"/>
 <path d="m200.68 282.54c-1.4297 9.8398 5.3867 18.973 15.227 20.398l109.01 15.84c0.875 0.13281 1.7539 0.19141 2.6172 0.19141 8.7969 0 16.488-6.457 17.785-15.406 1.4297-9.8398-5.3867-18.973-15.227-20.398l-109.01-15.84c-9.8867-1.4531-18.973 5.3867-20.398 15.227z"/>
 <path d="m380.69 221.1c4.2109 0 8.4492-1.4766 11.855-4.4648 7.4766-6.5508 8.2305-17.93 1.668-25.402l-72.602-82.836c-6.5508-7.4883-17.941-8.2305-25.402-1.668-7.4766 6.5508-8.2305 17.93-1.668 25.402l72.602 82.836c3.5508 4.0547 8.5312 6.1328 13.535 6.1328z"/>
 <path d="m484.68 181.21h0.23828c9.9492-0.13281 17.891-8.293 17.773-18.227l-1.4023-110.15c-0.13281-9.9375-8.5547-17.676-18.227-17.773-9.9492 0.13281-17.891 8.293-17.773 18.227l1.4023 110.15c0.13281 9.8633 8.1602 17.773 18 17.773z"/>
 <path d="m646.31 104.26-70.465 84.672c-6.3594 7.6445-5.3164 18.996 2.3164 25.344 3.3594 2.7969 7.4531 4.1641 11.496 4.1641 5.1602 0 10.285-2.207 13.848-6.4922l70.465-84.672c6.3594-7.6445 5.3164-18.996-2.3164-25.344-7.6445-6.3711-18.996-5.3281-25.344 2.3164z"/>
 <path d="m627.61 299.98c1.5 8.7734 9.1211 14.965 17.723 14.965 1.0078 0 2.0273-0.085937 3.0586-0.26562l108.56-18.613c9.793-1.6797 16.379-10.992 14.699-20.785-1.6914-9.8047-11.039-16.367-20.785-14.699l-108.56 18.613c-9.793 1.6797-16.379 10.992-14.699 20.785z"/>
</svg>
