<?xml version="1.0" encoding="UTF-8"?>
<svg width="512pt" height="512pt" version="1.1" viewBox="0 0 512 512" xmlns="http://www.w3.org/2000/svg">
 <path d="m74.238 125.96c0 34.121-51.199 34.121-51.199 0 0-34.141 51.199-34.141 51.199 0" fill="#fff"/>
 <path d="m74.238 216.58c0 34.121-51.199 34.121-51.199 0 0-34.141 51.199-34.141 51.199 0" fill="#fff"/>
 <path d="m74.238 307.2c0 34.141-51.199 34.141-51.199 0s51.199-34.141 51.199 0" fill="#fff"/>
 <path d="m137.22 179.72h36.859v36.859h-36.859z" fill="#fff"/>
 <path d="m189.44 179.72h36.859v36.859h-36.859z" fill="#fff"/>
 <path d="m241.66 179.72h36.859v36.859h-36.859z" fill="#fff"/>
 <path d="m294.4 179.72h36.859v36.859h-36.859z" fill="#fff"/>
 <path d="m346.62 179.72h36.859v36.859h-36.859z" fill="#fff"/>
 <path d="m240.64 250.36h36.859v36.859h-36.859z" fill="#fff"/>
 <path d="m292.86 250.36h36.859v36.859h-36.859z" fill="#fff"/>
 <path d="m216.06 295.42c1.0195-3.0781 1.0195-5.1211 1.0195-7.6797 0-6.6602-3.5781-10.238-7.1602-11.262-1.0195-0.51953-2.0391-0.51953-3.0781-0.51953-5.1211 0-10.762 4.1016-13.82 12.281 0 0-8.1992 24.059-15.359 45.059l-8.6992 26.641c-1.0195 1.5391-2.0391 3.0781-4.1016 3.0781-0.51953 0-1.0195 0-1.5391-0.51953-1.5391-0.51953-3.0781-2.0391-3.0781-4.1016v-1.5391s4.1016-12.281 9.2188-26.621c0-0.51953 0.51953-1.0195 0.51953-2.0391 0-2.0391-1.5391-4.1016-4.6016-5.1211-1.5391-0.51953-3.0781-0.51953-5.1211-0.51953-4.6016 0-9.2188 1.5391-10.762 6.1406l-9.2188 26.621c-1.0195 1.5391-2.0391 3.0781-4.0781 3.0781-0.51953 0-1.0195 0-1.5391-0.51953-1.5391-0.51953-3.0781-2.0391-3.0781-4.1016v-1.5391l8.6992-25.602v-1.0195c0-1.0195-0.51953-2.0391-3.0781-2.5586-1-0.5-2.0391-0.5-3.5586-0.5-4.6016 0-10.238 2.5586-12.281 8.6992l-7.6797 19.961c-1.0195 1.5391-2.5586 2.5586-4.6016 2.5586h-1.0195c-2.0391-1.0195-3.0781-3.0781-2.5586-5.6406l5.6406-15.359c1.0195-3.0781-2.0391-4.1016-3.0781-4.6016-1.0586-0.5-2.0781-0.5-3.1016-0.5-4.6016 0-9.7188 2.5586-12.801 10.762l-3.0781 7.1602c-5.1211 12.801-15.879 39.418-18.941 48.641-0.51953 2.0391-1.5391 8.6992-1.5391 16.898 0 5.6406 0 19.961-2.5586 32.762 0 0.51953 0 0.51953-0.51953 1.0195 0 0-23.559 57.34-27.641 67.082h85.004c1.5391-4.6016 13.82-34.82 13.82-34.82 2.0391-0.51953 2.0391-1.0195 2.5586-1.0195 0.51953-0.51953 28.16-33.801 33.801-51.723 3.0586-7.6797 41.98-124.4 43-129.02z" fill="#fff"/>
 <path d="m344.06 269.32c0 12.801 10.238 23.039 23.039 23.039 12.801 0 23.039-10.238 23.039-23.039 0-12.801-10.238-23.039-23.039-23.039-12.801 0.5-23.039 10.738-23.039 23.039zm8.1992 0c0-7.6797 6.6602-14.34 14.34-14.34 7.6797 0 14.34 6.6602 14.34 14.34 0 7.6797-6.6602 14.34-14.34 14.34-7.6797-0.019531-14.34-6.1602-14.34-14.34z" fill="#fff"/>
 <path d="m130.56 270.34c0 12.801 10.238 23.039 23.039 23.039 12.801 0 23.039-10.238 23.039-23.039 0-12.801-10.238-23.039-23.039-23.039-12.801 0.5-23.039 10.738-23.039 23.039zm8.6992 0c0-7.6797 6.6602-14.34 14.34-14.34 7.6797 0 14.34 6.6602 14.34 14.34 0 7.6797-6.6602 14.34-14.34 14.34-8.1992 0-14.34-6.1602-14.34-14.34z" fill="#fff"/>
 <path d="m484.86 239.62v-47.102h-49.16l0.019531-96.262h-15.359v-41.48h-44.539v41.48h-3.0781v-41.48h-44.539v41.48h-2.5586v-41.48h-44.539v41.48h-3.0781v-41.48h-44.539v41.48h-3.0781v-41.48h-44.539v41.48h-1.5391v-41.48h-44.539v41.48h-2.5586v-41.48h-44.539v269.32c5.6406-5.1211 12.801-6.1406 18.941-4.6016v-169.48h1.0195v-33.281h34.82v33.281h4.1016v-33.281h34.82v33.281h4.1016v-33.281h34.801v33.281h4.1016v-33.281h34.82v33.281h4.1016v-33.281h34.82v33.281h4.0781v-33.281h34.82v33.281h6.1406v-33.281h34.82v33.281h21.5v171.52h-187.9c-2.0391 5.6406-4.1016 12.281-6.6602 19.461h225.8v-0.51953h49.16v-47.102h-49.16v-3.0781h49.16v-47.102h-49.16v-3.0781h49.16z" fill="#fff"/>
 <path d="m117.24 323.58c0.51953-0.51953 1.0195-1.5391 1.5391-2.0391h-4.1016c1.0391 0.5 1.5391 1.0195 2.5586 2.0391z" fill="#fff"/>
 <path d="m213 268.28c5.6406 1.5391 10.238 6.1406 11.781 12.801v-30.719h-36.859v29.18c6.1211-10.738 16.879-13.82 25.078-11.262z" fill="#fff"/>
 <path d="m205.82 352.76c-1.0195 3.5781-2.5586 7.6797-3.5781 11.262h116.22v54.281h-134.14c-1.5391 4.1016-2.5586 7.1602-3.0781 8.1992h237.06v15.879l-244.74-0.019531c-2.0391 3.0781-4.1016 6.6602-6.1406 9.7188h265.72l0.019531-99.316zm215.04 64h-50.18v-51.199h50.18z" fill="#fff"/>
 <path d="m48.641 423.94c4.6016 0 8.6992-1.5391 12.801-3.5781v-9.2188c0-8.6992 1.0195-15.879 1.5391-18.441v-1.0391c1.0195-2.5586 2.5586-6.6602 4.1016-11.262-4.6016-5.1211-11.262-8.1992-18.441-8.1992-14.34 0-25.602 11.262-25.602 25.602 0 14.359 11.262 26.141 25.602 26.141z" fill="#fff"/>
</svg>
