<?xml version="1.0" encoding="UTF-8"?>
<svg width="1200pt" height="1200pt" version="1.1" viewBox="0 0 1200 1200" xmlns="http://www.w3.org/2000/svg">
 <path d="m636.56 600.24c-5.4375 4.4531-7.4062 10.547-7.6406 16.641-1.0781 2.25-4.5938 4.3594-8.3438 5.4375-1.5 0.42188-3.0469 0.70312-4.4531 0.70312-1.2188 0-2.3438-0.1875-3.1875-0.5625-1.2656-0.5625-2.0625-1.9688-1.875-4.5 0.79688-9.8438 2.7188-18.281 4.3125-25.359 1.0781-4.7344 2.0156-8.9531 2.4844-12.609 3.8906-31.453 21.422-31.359 46.547-31.172h2.2031v4.0312c-6.1875 0.75-12.938 2.0625-18.844 4.7812-13.031 5.9531-21.422 17.812-11.156 42.656zm50.906-49.312c9.7969-0.89062 19.969-1.8281 29.297-1.6875v-236.44h-42.422v239.21l1.6875-0.14062 2.0625-0.14063c4.0312-0.32812 6.6562-0.5625 9.375-0.84375zm-51.469 124.78 0.046875-0.09375c0.32812-1.2188-0.375 1.125-0.5625 1.4062l0.14062-0.09375c0.14062-0.42188 0.28125-0.84375 0.375-1.2188zm206.34 217.64v-138.47c-17.766-15.094-34.125-39.141-48.234-64.594-11.578-20.812-21.609-42.516-29.672-60.844-1.0312 3.4219-2.4375 6.6562-4.125 9.5625-0.375 0.70312-0.79688 1.3594-1.2188 2.0156 0.32812 0.46875 0.60938 0.98438 0.89062 1.5 1.9219 3.7031 3 9.4688 2.7656 15.75-0.23438 6.1406-1.6406 12.938-4.6875 18.844-2.25 4.3594-5.3906 8.2969-9.5625 11.203 0.70312 3.1875 0.89062 6.6562 0.51562 10.219-0.60938 5.4375-2.6719 11.016-6.4219 15.938-3.2812 4.3125-7.8281 8.0625-13.828 10.688 10.078 10.453 20.109 32.953 31.453 58.5 21.141 47.391 47.109 105.66 82.078 109.73zm80.438 8.0625h-741c-2.1562 0-3.8906-1.7344-3.8906-3.8906v-150.47c-0.23438-0.70312-0.23438-1.4531 0-2.25v-435.89c0-2.1562 1.7344-3.8906 3.8906-3.8906h836.02c2.1562 0 3.8906 1.7344 3.8906 3.8906v416.81c16.266 1.2656 30.938 8.4375 41.859 19.359 4.4531 4.4531 8.2969 9.5625 11.391 15.141l0.046875-475.78c0-5.9062-2.4375-11.25-6.3281-15.141-3.8906-3.8906-9.2812-6.3281-15.141-6.3281h-907.4c-5.9062 0-11.25 2.4375-15.141 6.3281-3.8906 3.8906-6.3281 9.2812-6.3281 15.141v631.18c0 5.9062 2.4375 11.25 6.3281 15.141s9.2812 6.3281 15.141 6.3281h907.4c5.9062 0 11.25-2.4375 15.141-6.3281s6.3281-9.2812 6.3281-15.141v-14.156h-152.26zm-202.82-181.55c1.3125-0.32812 2.5781-0.70312 3.75-1.125 5.7188-2.0156 9.8438-5.25 12.703-9 2.8125-3.7031 4.3594-7.9688 4.8281-12.141 0.42188-3.5156 0.046875-6.9375-0.98438-9.7969-0.65625-1.8281 0.14062-3.8438 1.875-4.7812 4.0312-2.1094 6.9375-5.5312 9-9.5156 2.4844-4.8281 3.6562-10.406 3.8438-15.516 0.1875-4.9688-0.5625-9.3281-1.875-11.859-0.32812-0.65625-0.65625-1.0781-0.89062-1.2188-0.23438-0.09375-0.42188-0.23438-0.60938-0.42188-1.6875-1.3125-1.9688-3.7969-0.65625-5.4844 0.9375-1.2188 1.8281-2.5312 2.625-3.9375 3.2344-5.6719 5.2969-12.75 4.9688-19.688 0-0.14062-0.046875-0.32812-0.046875-0.46875-0.375-6.6094-3-12.984-8.8125-17.578-0.9375-0.75-1.9219-1.4062-3.0469-2.0625-1.5938-0.79688-2.4844-2.625-2.0625-4.4062 5.1562-20.719-1.875-29.25-13.922-32.25-3.0469-0.75-6.375-1.2188-9.9844-1.4531-0.1875 0-0.375 0-0.5625-0.046875-9.7969-0.5625-21.094 0.46875-31.969 1.5-3.7031 0.32812-7.3594 0.70312-9.4688 0.84375l-2.0625 0.14062c-1.7344 0.14062-3.6094 0.28125-5.5781 0.46875-0.14062 0-0.28125 0.046875-0.42188 0.046875-6.4688 0.65625-13.781 1.7344-19.688 4.4531-9.1875 4.1719-14.953 12.891-7.5938 31.688 3.5625-1.4062 7.9688-2.3438 13.359-2.7188 5.9062-0.375 12.328-0.46875 21.141 0.23438 8.7188 0.70312 19.828 2.1562 35.203 4.7344 2.1094 0.375 3.5625 2.3438 3.1875 4.5-0.375 2.1094-2.3438 3.5625-4.5 3.1875-15.094-2.5781-26.016-3.9844-34.547-4.6406-8.4375-0.65625-14.484-0.60938-20.016-0.23438-26.906 1.7812-20.203 24.75-17.344 32.109 2.6719-0.046875 5.8594-0.1875 9.2812-0.375 17.766-0.79688 43.172-1.875 59.391 4.8281 1.9688 0.79688 2.9531 3.0938 2.1094 5.1094-0.79688 1.9688-3.0938 2.9531-5.1094 2.1094-14.625-6.0469-39-4.9688-56.062-4.2188-3.6562 0.14062-7.0312 0.32812-9.9375 0.375-9.2812 16.5-1.125 26.906 2.0156 30.938 0.23438 0.32812 0.46875 0.60938 0.70312 0.89062 6.7031 1.125 13.219 1.4062 19.734 1.6875 12.984 0.60938 26.156 1.1719 42.328 7.875 1.9688 0.79688 2.9531 3.0938 2.1094 5.1094-0.79688 1.9688-3.0938 2.9531-5.1094 2.1094-14.906-6.1406-27.375-6.75-39.703-7.2656-6.3281-0.28125-12.609-0.5625-19.219-1.5938-0.98438 2.7188-2.3438 6.5156-2.8594 10.406-1.0781 8.0625 1.7812 17.391 21.656 20.016 3.6562 0.46875 6.8438 1.0312 9.7031 1.5938 0.23438 0.046875 0.42188 0.09375 0.65625 0.14062 5.4375 1.125 9.6094 2.4375 13.5 3.6094 5.0156 1.5469 9.6094 2.9531 16.266 3.7031 7.1719 0.84375 13.219 0.51562 18.281-0.65625 0.09375-0.046875 0.1875-0.046875 0.28125-0.09375zm-19.5 8.4844c-7.2656-0.84375-12.188-2.3438-17.625-4.0312-2.5781-0.79688-5.2969-1.6406-8.4375-2.4375v171.66h42.422v-165.24c-4.8281 0.65625-10.266 0.70312-16.312 0zm192.1 165.24v-580.74h-42.422v580.78h42.422zm-612.1-268.87c-0.42188-0.65625-0.84375-1.3125-1.2188-2.0156-1.6875-2.9062-3.0938-6.1406-4.125-9.5625-9 20.438-20.438 45-33.656 67.875-16.219 28.078-35.156 53.531-55.734 65.859v142.82c35.484-4.4062 65.812-67.969 90.234-119.11 12.984-27.188 24.375-51.047 34.828-61.828-6-2.5781-10.547-6.375-13.828-10.688-3.75-4.9219-5.7656-10.547-6.4219-15.938-0.42188-3.5156-0.23438-7.0312 0.51562-10.219-4.1719-2.9062-7.3125-6.7969-9.5625-11.203-3.0469-5.9062-4.4531-12.703-4.6875-18.844-0.23438-6.2812 0.84375-12.047 2.7656-15.75 0.28125-0.51563 0.5625-1.0312 0.89062-1.5zm81-89.25 2.0625 0.14062 1.6875 0.14062v-222.89h-42.422v220.13c9.3281-0.1875 19.5 0.75 29.297 1.6875 2.7188 0.23438 5.3438 0.51562 9.375 0.84375zm179.53 358.13v-580.74h-42.422v580.78h42.422zm534.37-99.75v99.75h-150.79v-104.3c0-15.375 6.2812-29.344 16.453-39.516 10.125-10.125 24.141-16.453 39.516-16.453h34.031c3.6562-0.09375 4.8281 0.14062 6.5156 0.1875 14.391 1.0781 27.375 7.4531 37.078 17.109 9.1875 9.1875 15.375 21.375 16.922 34.875v6.6562c0 0.60938 0.14062 1.1719 0.375 1.6875zm-51.094 5.7188c0-6.7969-2.625-12.984-6.8438-17.484-4.3125-4.5469-10.219-7.3594-16.828-7.3594-6.5625 0-12.516 2.8125-16.828 7.3594-4.2188 4.5-6.8438 10.688-6.8438 17.484 0 4.9688 1.4062 9.6094 3.7969 13.5 2.0156 3.2812 4.7812 6.0469 8.0625 8.0156v20.438c0 3.3281 1.3125 6.375 3.375 8.5781 2.1562 2.2969 5.1562 3.7031 8.4375 3.7031s6.2812-1.4062 8.4375-3.7031c2.1094-2.2031 3.375-5.25 3.375-8.5781v-20.391c3.2344-1.9688 6-4.7344 8.0625-8.0156 2.3906-3.8906 3.7969-8.5312 3.7969-13.5zm-605.26-193.6c1.5 0.42188 3.0469 0.70312 4.4531 0.70312 1.2188 0 2.3438-0.1875 3.1875-0.5625 1.2656-0.5625 2.0625-1.9688 1.875-4.5-0.79688-9.8438-2.7188-18.281-4.3125-25.359-1.0781-4.7344-2.0156-8.9531-2.4844-12.609-3.8906-31.453-21.422-31.359-46.547-31.172h-2.2031v4.0312c6.1875 0.75 12.938 2.0625 18.844 4.7344 13.031 5.9531 21.422 17.812 11.156 42.656 5.4375 4.4531 7.4062 10.594 7.6406 16.641 1.0781 2.25 4.5938 4.3125 8.3438 5.4375zm-19.031 19.031c-2.9531-0.046875-6.2812-0.1875-9.9375-0.375-17.062-0.75-41.438-1.8281-56.062 4.2188-1.9688 0.79688-4.2656-0.14062-5.1094-2.1094-0.79688-1.9688 0.14062-4.2656 2.1094-5.1094 16.219-6.7031 41.625-5.5781 59.391-4.8281 3.4688 0.14062 6.6562 0.28125 9.2812 0.375 2.8594-7.3594 9.5625-30.328-17.344-32.109-5.5312-0.375-11.578-0.42188-20.016 0.23438-8.5312 0.70312-19.453 2.1094-34.547 4.6406-2.1094 0.375-4.125-1.0781-4.5-3.1875s1.0781-4.125 3.1875-4.5c15.422-2.625 26.531-4.0781 35.203-4.7344 8.8125-0.70312 15.234-0.65625 21.141-0.23438 5.3906 0.375 9.75 1.3125 13.359 2.7188 7.4062-18.75 1.5938-27.469-7.5938-31.688-5.8594-2.6719-13.219-3.7969-19.688-4.4531-0.14062 0-0.23438 0-0.375-0.046875-1.9688-0.1875-3.8906-0.32812-5.625-0.46875l-2.0625-0.14062c-2.1094-0.1875-5.7656-0.51562-9.4688-0.84375-10.875-0.98438-22.172-2.0625-31.969-1.5-0.1875 0.046875-0.375 0.046875-0.51562 0.046875h-0.046875c-3.5625 0.23438-6.8906 0.65625-9.9375 1.4531-12.047 3-19.078 11.531-13.922 32.25 0.42188 1.8281-0.46875 3.6562-2.0625 4.4062-1.0781 0.65625-2.1094 1.3594-3.0469 2.0625-5.8125 4.5938-8.4375 10.969-8.8125 17.578 0 0.14062 0 0.32812-0.046875 0.46875-0.28125 6.8906 1.7344 14.016 4.9688 19.688 0.79688 1.4062 1.6875 2.7188 2.625 3.9375 1.3125 1.6875 1.0312 4.125-0.65625 5.4844-0.1875 0.14062-0.42188 0.28125-0.60938 0.42188-0.23438 0.14062-0.5625 0.5625-0.89062 1.2188-1.3594 2.5312-2.0625 6.8906-1.875 11.859 0.1875 5.1094 1.3594 10.688 3.8438 15.516 2.0625 3.9844 5.0156 7.4062 9 9.5156 1.7344 0.89062 2.5312 2.9531 1.875 4.7812-1.0312 2.8594-1.4062 6.2812-0.98438 9.7969 0.46875 4.1719 2.0156 8.4375 4.8281 12.141 2.8125 3.75 6.9844 6.9375 12.703 9 1.1719 0.42188 2.4375 0.79688 3.75 1.125 0.09375 0 0.1875 0.046875 0.28125 0.09375 5.0625 1.1719 11.156 1.5 18.281 0.65625 6.6562-0.75 11.203-2.1562 16.266-3.7031 3.8906-1.1719 8.0625-2.4844 13.5-3.6094 0.1875-0.046875 0.42188-0.09375 0.60938-0.14062 2.8594-0.5625 6.0469-1.125 9.7031-1.5938 19.828-2.625 22.688-11.953 21.656-20.016-0.51562-3.8906-1.875-7.6875-2.8594-10.406-6.6094 0.98438-12.938 1.2656-19.219 1.5938-12.328 0.5625-24.797 1.125-39.703 7.2656-1.9688 0.79688-4.2656-0.14062-5.1094-2.1094-0.79688-1.9688 0.14062-4.2656 2.1094-5.1094 16.172-6.6562 29.344-7.2656 42.328-7.875 6.5156-0.28125 13.031-0.60938 19.734-1.6875 0.23438-0.28125 0.42188-0.5625 0.70312-0.89062 3.1406-4.0312 11.297-14.438 2.0156-30.938zm-77.203 87.047v181.55h42.422v-188.02c-3.1406 0.79688-5.8594 1.6406-8.4375 2.4375-5.4375 1.6406-10.406 3.1875-17.625 4.0312-6.0469 0.70312-11.484 0.65625-16.312 0zm81.141-51.422 0.14062 0.09375c-0.1875-0.32812-0.9375-2.8125-0.51562-1.3125 0.09375 0.375 0.23438 0.79688 0.375 1.2188z"/>
</svg>
