<?xml version="1.0" encoding="UTF-8"?>
<svg width="1200pt" height="1200pt" version="1.1" viewBox="0 0 1200 1200" xmlns="http://www.w3.org/2000/svg">
 <path d="m971.34 38.719c104.86 0 189.89 85.031 189.89 189.89s-85.031 189.89-189.89 189.89c-104.86 0-189.89-85.031-189.89-189.89s85.031-189.89 189.89-189.89zm-581.95 311.34c-35.906 40.781-114.7 26.578-122.02-36.188-6.7969 2.1562-14.062 3.2812-21.562 3.2812h-30c45.891 26.109 75.609 75.469 75.609 130.4 0 8.5312-6.8906 15.422-15.422 15.422s-15.422-6.8906-15.422-15.422c0-64.594-51.422-118.22-115.73-118.73-27.844-0.1875-27.609-42.516 0.09375-42.516h100.83c26.578 0 45.75-24.562 34.875-47.203-6.4219-13.359-20.438-20.391-34.875-20.625h-169.13c-20.953 0.1875-37.922 11.438-37.922 33.891v96.938c0 10.969 2.2969 17.25 7.3125 26.531l82.594 143.16h272.58c27.047-50.484 64.828-98.766 73.641-154.26-27.844 15.047-64.969 9.6562-85.453-14.672zm469.5 542.68h-253.87c-3.8438 0-7.0312 3.1875-7.0312 7.0312l0.046875 254.53c0 3.8438 3.1875 7.0312 7.0312 7.0312h253.87c3.8438 0 7.0312-3.1875 7.0312-7.0312l-0.09375-254.53c0-3.8438-3.1875-7.0312-6.9844-7.0312zm-15.422-52.031h-223.03v21.188h223.03zm-2.6719-173.76c-32.906 34.547-100.31 21.562-108.33-32.062-11.625 3.2344-24.094 2.3438-36.562 2.3438 37.312 23.906 61.172 65.812 61.172 112.17 0 8.5312-6.8906 15.422-15.422 15.422s-15.422-6.8906-15.422-15.422c0-55.453-44.156-101.53-99.328-101.95-26.906-0.1875-26.672-41.062 0.09375-41.062h88.219c21.797 0 37.688-19.969 28.781-38.531-5.2031-10.828-16.969-16.875-28.781-16.969h-147.98c-17.25-0.09375-31.266 9.3281-31.266 27.75v84.797c0 8.0156 1.7344 14.672 5.7188 21.516h0.046875l72.141 124.97h236.16c22.828-42.375 54.422-83.438 63.047-129.61-24.047 11.062-54.328 6.2344-72.281-13.359zm16.125-156.14c0-38.719 58.547-38.672 58.547 0v115.64c0 13.969-7.3125 22.828-16.688 26.578-17.297 6.9375-41.812-1.0312-41.812-26.578zm-94.406-29.156c0-15.188 7.9688-24.797 18.188-28.875 18.844-7.5938 45.375 1.2656 45.375 28.875v142.26c0 15.188-7.9688 24.797-18.188 28.875-18.844 7.5938-45.375-1.2656-45.375-28.875v-7.4531c0.32812-0.79688 13.641-13.359 14.719-35.016 1.2656-25.078-14.438-39.844-14.719-40.641zm-94.406-18.891v57.328c17.812 0 46.266-2.3906 63.562 2.1094v-59.438c0-27.656-26.531-36.469-45.375-28.875-10.172 4.0781-18.188 13.688-18.188 28.875zm-94.359 0v57.328h63.562v-57.328c0-27.656-26.531-36.469-45.375-28.875-10.219 4.0781-18.188 13.688-18.188 28.875zm-163.78 146.53h-290.16c-5.5781 0-10.219 4.6406-10.219 10.219v531.56c0 5.5781 4.6406 10.219 10.219 10.219h290.16c5.5781 0 10.219-4.6406 10.219-10.219l0.046875-531.56c-0.046875-5.625-4.6406-10.219-10.266-10.219zm-15.375-59.484h-259.36v28.641h259.36zm10.969-374.9c0-17.016 9-27.797 20.484-32.438 21.188-8.5312 50.812 1.5938 50.812 32.438v132.19c0 17.016-9 27.797-20.484 32.438-21.188 8.5312-50.812-1.5938-50.812-32.438zm-107.91-33.328c0-18.375 9.75-30.047 22.172-35.062 22.969-9.2344 54.891 1.8281 54.891 35.062v162.61c0 18.375-9.75 30.047-22.172 35.062-22.969 9.2344-54.891-1.8281-54.891-35.062v-9.375c4.125-4.4531 7.5938-9.4219 10.312-14.812 19.828-39.469-10.312-69.938-10.312-69.984zm-107.91-21.609v67.734c21.703 0 55.969-3.3281 77.062 3.1406v-70.875c0-33.234-31.922-44.297-54.891-35.062-12.469 5.0156-22.172 16.688-22.172 35.062zm-30.844 67.734v-67.734c0-33.234-31.922-44.297-54.891-35.062-12.422 5.0156-22.172 16.688-22.172 35.062v67.734zm736.36 12.141h152.16c8.5312 0 15.422-6.8906 15.422-15.422s-6.8906-15.422-15.422-15.422h-152.16c-8.5312 0-15.422 6.8906-15.422 15.422 0.046875 8.4844 6.9375 15.422 15.422 15.422zm0 88.406h152.16c8.5312 0 15.422-6.8906 15.422-15.422s-6.8906-15.422-15.422-15.422h-152.16c-8.5312 0-15.422 6.8906-15.422 15.422 0.046875 8.5312 6.9375 15.422 15.422 15.422z" fill-rule="evenodd"/>
</svg>
