<?xml version="1.0" encoding="UTF-8"?>
<!-- Generator: Adobe Illustrator 27.0.1, SVG Export Plug-In . SVG Version: 6.00 Build 0)  -->
<svg xmlns="http://www.w3.org/2000/svg" xmlns:xlink="http://www.w3.org/1999/xlink" version="1.1" id="Layer_1" x="0px" y="0px" viewBox="0 0 113.8 27.8" style="enable-background:new 0 0 113.8 27.8;" xml:space="preserve">
<style type="text/css">
	.st0{fill:#FFFFFF;}
</style>
<g>
	<g>
		<g>
			<path class="st0" d="M50.8,27.8h-1.3c0,0,0,0,0,0c-0.1,0-0.3,0-0.5,0h-0.7c-0.4,0-0.8,0-1.1,0l-1,0l-1.8-4.6l-0.2-0.4     c-0.3-0.8-0.6-1.5-1-2.3c-0.5-1.2-0.9-2.3-1.3-3.5l0,0c-0.2-0.5-0.4-0.9-0.5-1.4c0-0.1-0.1-0.2-0.1-0.3c0-0.1-0.1-0.2-0.1-0.3     c0,0,0-0.1-0.1-0.1L41,14.7l-0.3,0c-0.5,0-1.1,0-1.6,0l-0.6,0v12.7c0,0.2-0.2,0.4-0.4,0.4h-0.6c-0.1,0-0.1,0-0.2,0l-2.3,0     c-0.2,0-0.4-0.2-0.4-0.4V0.2h1.4l0.1,0c0,0,0,0,0.1,0l2.9,0c1.7,0,3,0,4.2,0h0.1c3,0,5.8,2.1,6.6,4.9c0.6,2.1,0.3,4.5-0.8,6.3     c-0.8,1.4-2,2.3-3.5,2.7L45,14.2l0.4,1.1c0.4,1.1,0.9,2.3,1.3,3.4c0.9,2.1,2.9,6.6,3.5,7.9c0.1,0.3,0.2,0.4,0.3,0.5c0,0,0,0,0,0     c0,0.1,0,0.2,0.1,0.3L50.8,27.8z M43.4,10.9l0.4,0c0.2,0,0.7-0.2,1-0.4c1-0.7,1.5-2,1.4-3.4c0-0.6-0.3-1.9-1.5-2.6     c-0.2-0.1-0.4-0.2-0.6-0.2C42.8,4,41.4,4.1,40,4.1c-0.4,0-0.7,0-1.1,0l-0.4,0v6.7l0.4,0c0.6,0,1.2,0.1,1.8,0.1     C41.5,10.9,42.4,10.9,43.4,10.9L43.4,10.9z"></path>
			<path class="st0" d="M60.5,25.6v2c0,0.1-0.1,0.2-0.2,0.2h-3.5c-0.1,0-0.2-0.1-0.2-0.2c0-0.1,0-8.6,0-9.9c0-0.4,0-1.5,0-3v-0.2     c0-4,0-10.1,0.1-12.2c0-0.1,0-0.2,0-0.3c0-0.1,0-0.3,0-0.4l0-1.2c0-0.1,0.1-0.2,0.2-0.2h1.3c0.2,0,0.5,0,0.7,0c0.1,0,0.2,0,0.2,0     c0.1,0,0.2,0,0.3,0h0.9c0.1,0,0.2,0.1,0.2,0.2v0.1c0,0,0,0.1,0,0.2C60.5,5.5,60.7,21.2,60.5,25.6z"></path>
			<path class="st0" d="M82.7,9.5c-0.2,0.7-0.5,1.4-0.8,2c-0.6,1.1-2.1,2.9-6.3,3.2c-1,0.1-2.1,0-3.2,0h0c-0.3,0-0.5,0-0.8,0l-0.4,0     v12.7c0,0.2-0.2,0.4-0.4,0.4h-0.6l0,0c-0.1,0-0.1,0-0.2,0h-1.7c0,0-0.1,0-0.1,0l-0.5,0c-0.2,0-0.4-0.2-0.4-0.4V0.6     c0-0.2,0.2-0.4,0.4-0.4h0.7l0,0c0.1,0,0.3,0,0.4,0l2.4,0v0l0.4,0c1.1,0,2.1,0,3.2,0h0c0.6,0,1,0,1.4,0.1c0.4,0.1,0.8,0.1,1.2,0.2     C79.5,1,81.1,2.1,82,3.7C83,5.5,83.3,7.6,82.7,9.5z M78.9,7.4c-0.1-2.2-1.3-3.4-3.4-3.5c-1.1,0-2.5,0-3.9,0l-0.4,0v7.1l0.9,0     c0.4,0,0.9,0,1.4,0c0.5,0,0.9,0,1.2,0c0.5,0,1.1-0.1,1.7-0.2l0.1,0c0.5-0.1,1-0.3,1.3-0.7c0.3-0.4,0.6-0.8,0.8-1.5     C78.9,8.2,78.9,7.7,78.9,7.4z"></path>
			<path class="st0" d="M91.8,25.6v2c0,0.1-0.1,0.2-0.2,0.2H88c-0.1,0-0.2-0.1-0.2-0.2c0-0.1,0-8.6,0-9.9c0-0.4,0-1.5,0-3v-0.2     c0-4,0-10.1,0.1-12.2c0-0.1,0-0.2,0-0.3c0-0.1,0-0.3,0-0.4l0-1.2c0-0.1,0.1-0.2,0.2-0.2h1.3c0.2,0,0.5,0,0.7,0c0.1,0,0.2,0,0.2,0     c0.1,0,0.2,0,0.3,0h0.9c0.1,0,0.2,0.1,0.2,0.2v0.1c0,0,0,0.1,0,0.2C91.8,5.5,91.9,21.2,91.8,25.6z"></path>
			<path class="st0" d="M113.8,0.2v27.4c0,0.1-0.1,0.3-0.3,0.3h-1.7c-0.2,0-0.5,0-0.8,0c0,0-0.1,0-0.1,0l-0.8,0     c-0.1,0-0.3-0.1-0.3-0.3v-0.1l0-0.1c-0.1-0.1-5.4-12.2-6.5-15l-0.8-2v17.2c0,0.1-0.1,0.2-0.2,0.2h-0.8l0,0c0,0-0.1,0-0.1,0h-1.6     c0,0-0.1,0-0.1,0l-0.7,0c-0.1,0-0.2-0.1-0.2-0.2l0-27.4h0.9l0,0c0,0,0.1,0,0.1,0c0,0,0,0,0.1,0l0,0l2.4,0v0.1l0.1,0.1     c0.1,0.3,0.5,1,0.6,1.3c0.6,1.9,5.2,13,5.9,14.7l1.1,2.6l0-2.1c0-0.7,0-1.3,0-2.1V0.6l0-0.4l0.6,0c0.2,0,0.4,0,0.7,0h0     c0.3,0,0.6,0,0.9,0c0.2,0,0.4,0,0.5,0c0,0,0.1,0,0.1,0L113.8,0.2z"></path>
		</g>
	</g>
	<g>
		<g>
			<path class="st0" d="M25.7,12.6l1.9,0.2c0.1,0,0.2-0.1,0.1-0.1C27.2,6,21.9,0.7,15.3,0c-0.1,0-0.2,0.1-0.1,0.1L15.3,2     c0,0.1,0.1,0.1,0.1,0.1c5.3,0.7,9.6,5,10.2,10.3C25.6,12.6,25.7,12.6,25.7,12.6z"></path>
		</g>
		<g>
			<path class="st0" d="M27.6,15.3l-1.9,0.2c-0.1,0-0.1,0-0.1,0.1c-0.7,5.2-5,9.4-10.2,10.1c-0.1,0-0.1,0.1-0.1,0.1l-0.2,1.9     c0,0.1,0.1,0.2,0.1,0.1c6.5-0.6,11.8-5.8,12.5-12.4C27.7,15.3,27.7,15.2,27.6,15.3z"></path>
		</g>
		<g>
			<path class="st0" d="M2,15.3l-1.9-0.2c-0.1,0-0.2,0.1-0.1,0.1c0.7,6.5,5.9,11.8,12.5,12.4c0.1,0,0.2-0.1,0.1-0.1l-0.2-1.9     c0-0.1-0.1-0.1-0.1-0.1c-5.3-0.7-9.5-4.9-10.2-10.2C2.1,15.4,2.1,15.4,2,15.3z"></path>
		</g>
		<g>
			<path class="st0" d="M0.1,12.7L2,12.5c0.1,0,0.1-0.1,0.1-0.1C2.8,7.1,7.1,2.8,12.4,2.1c0.1,0,0.1-0.1,0.1-0.1l0.2-1.9     c0-0.1-0.1-0.2-0.1-0.1C5.9,0.6,0.6,5.9,0,12.6C0,12.7,0.1,12.7,0.1,12.7z"></path>
		</g>
		<g>
			<path class="st0" d="M14.1,0.2l1,10.5c0,0,0,0,0,0L12.3,12c0,0,0,0,0,0L14.1,0.2C14,0.2,14.1,0.2,14.1,0.2z"></path>
		</g>
		<g>
			<path class="st0" d="M27.9,14.1l-10.5,1c0,0,0,0,0,0l-1.6-2.6c0,0,0,0,0,0L27.9,14.1C27.9,14.1,27.9,14.1,27.9,14.1z"></path>
		</g>
		<g>
			<path class="st0" d="M13.8,27.7l-1.2-10.4c0,0,0,0,0,0l3.1-1.2c0,0,0,0,0,0L13.8,27.7C13.8,27.7,13.8,27.7,13.8,27.7z"></path>
		</g>
		<g>
			<path class="st0" d="M0.2,13.8l10.5-1c0,0,0,0,0,0l1.2,2.7c0,0,0,0,0,0L0.2,13.8C0.2,13.8,0.2,13.8,0.2,13.8z"></path>
		</g>
		<g>
			<path class="st0" d="M5.1,9.3c-0.4,0.8-0.8,1.8-1,2.7c0,0,0,0,0,0l2.2-0.2c0,0,0,0,0,0c0.1-0.5,0.3-1,0.6-1.4c0,0,0,0,0,0     L5.1,9.3C5.1,9.3,5.1,9.3,5.1,9.3z"></path>
			<path class="st0" d="M10.2,7.1c0.5-0.3,1-0.5,1.5-0.6c0,0,0,0,0,0L12,4.2c0,0,0,0,0,0c-0.8,0.2-1.5,0.4-2.3,0.7c0,0,0,0,0,0     L10.2,7.1C10.2,7.1,10.2,7.1,10.2,7.1z"></path>
			<path class="st0" d="M7.4,9.6c0.5-0.8,1.2-1.5,1.9-2c0,0,0,0,0,0L8.9,5.4c0,0,0,0,0,0C7.5,6.1,6.4,7.2,5.6,8.5c0,0,0,0,0,0     L7.4,9.6C7.4,9.6,7.4,9.6,7.4,9.6z"></path>
		</g>
		<g>
			<path class="st0" d="M9.7,22.9c0.7,0.3,1.4,0.6,2.2,0.7c0,0,0,0,0,0l-0.2-2.2c0,0,0,0,0,0c-0.4-0.1-0.8-0.3-1.2-0.5c0,0,0,0,0,0     L9.7,22.9C9.7,22.8,9.7,22.9,9.7,22.9z"></path>
			<path class="st0" d="M7.1,17.6c-0.3-0.5-0.5-0.9-0.6-1.4c0,0,0,0,0,0l-2.2-0.2c0,0,0,0,0,0c0.2,0.9,0.5,1.7,0.9,2.5c0,0,0,0,0,0     L7.1,17.6C7.1,17.6,7.1,17.6,7.1,17.6z"></path>
			<path class="st0" d="M9.7,20.4c-0.8-0.5-1.5-1.2-2.1-2c0,0,0,0,0,0l-2,0.8c0,0,0,0,0,0c0.8,1.3,2,2.4,3.3,3.2c0,0,0,0,0,0     L9.7,20.4C9.7,20.4,9.7,20.4,9.7,20.4z"></path>
		</g>
		<g>
			<path class="st0" d="M22.5,18.8c0.5-0.8,0.8-1.8,1.1-2.8c0,0,0,0,0,0l-2.2,0.2c0,0,0,0,0,0c-0.2,0.5-0.4,1-0.7,1.5c0,0,0,0,0,0     L22.5,18.8C22.5,18.8,22.5,18.8,22.5,18.8z"></path>
			<path class="st0" d="M18.7,22.5c1.3-0.7,2.4-1.7,3.3-2.9c0,0,0,0,0,0l-1.8-1.1c0,0,0,0,0,0c-0.5,0.7-1.2,1.3-1.9,1.8c0,0,0,0,0,0     L18.7,22.5C18.7,22.5,18.7,22.5,18.7,22.5z"></path>
			<path class="st0" d="M17.3,20.8c-0.4,0.2-0.8,0.4-1.3,0.5c0,0,0,0,0,0l-0.2,2.2c0,0,0,0,0,0c0.7-0.1,1.4-0.4,2-0.6c0,0,0,0,0,0     L17.3,20.8C17.4,20.8,17.4,20.8,17.3,20.8z"></path>
		</g>
		<g>
			<path class="st0" d="M18.1,4.9c-0.7-0.3-1.4-0.6-2.1-0.7c0,0,0,0,0,0l0.2,2.2c0,0,0,0,0,0c0.4,0.1,0.8,0.3,1.2,0.5c0,0,0,0,0,0     L18.1,4.9C18.1,4.9,18.1,4.9,18.1,4.9z"></path>
			<path class="st0" d="M18.1,7.4c0.8,0.5,1.5,1.2,2.1,2.1c0,0,0,0,0,0l2-0.8c0,0,0,0,0,0c-0.8-1.3-2-2.4-3.3-3.2c0,0,0,0,0,0     L18.1,7.4C18.1,7.4,18.1,7.4,18.1,7.4z"></path>
			<path class="st0" d="M22.7,9.4l-1.9,0.8c0,0,0,0,0,0c0.3,0.5,0.5,1,0.6,1.6c0,0,0,0,0,0l2.2,0.2c0,0,0,0,0,0     C23.4,11.1,23.1,10.2,22.7,9.4C22.7,9.4,22.7,9.4,22.7,9.4z"></path>
		</g>
		<g>
			<g>
				<path class="st0" d="M8.8,9.6l0.8,1.7c0,0,0,0,0,0c0.8-0.4,1.5-1.1,2-1.8c0,0,0,0,0,0L8.8,9.6C8.8,9.6,8.8,9.6,8.8,9.6z"></path>
			</g>
			<g>
				<path class="st0" d="M9.4,18.9l1.9-0.7c0,0,0,0,0,0c-0.4-0.9-1.1-1.7-2-2.2c0,0,0,0,0,0L9.4,18.9C9.4,18.9,9.4,18.9,9.4,18.9z"></path>
			</g>
			<g>
				<path class="st0" d="M18.8,18.2l-0.7-2c0,0,0,0,0,0c-1,0.5-1.8,1.2-2.2,2.2c0,0,0,0,0,0L18.8,18.2      C18.8,18.2,18.8,18.2,18.8,18.2z"></path>
			</g>
			<g>
				<path class="st0" d="M18,8.9l-1.9,0.8c0,0,0,0,0,0c0.4,0.9,1.1,1.6,2,2c0,0,0,0,0,0L18,8.9C18,8.9,18,8.9,18,8.9z"></path>
			</g>
		</g>
	</g>
</g>
</svg>
